<?xml version="1.0" encoding="UTF-8" standalone="no"?>
<!DOCTYPE svg PUBLIC "-//W3C//DTD SVG 1.1//EN" "http://www.w3.org/Graphics/SVG/1.1/DTD/svg11.dtd">
<!-- Generated by graphviz version 2.40.1 (20161225.0304)
 -->
<!-- Title: %0 Pages: 1 -->
<svg width="1024pt" height="548pt" viewBox="0.00 0.00 1024.00 548.00" xmlns="http://www.w3.org/2000/svg" xmlns:xlink="http://www.w3.org/1999/xlink">
<g id="graph0" class="graph" transform="scale(1 1) rotate(0) translate(4 544)">
<title>%0</title>
<polygon fill="#ffffff" stroke="transparent" points="-4,4 -4,-544 1020.0036,-544 1020.0036,4 -4,4"/>
<!-- [root] aws_autoscaling_group.example (expand) -->
<g id="node1" class="node">
<title>[root] aws_autoscaling_group.example (expand)</title>
<polygon fill="none" stroke="#000000" points="501.382,-396 302.1588,-396 302.1588,-360 501.382,-360 501.382,-396"/>
<text text-anchor="middle" x="401.7704" y="-373.8" font-family="Times,serif" font-size="14.00" fill="#000000">aws_autoscaling_group.example</text>
</g>
<!-- [root] aws_launch_configuration.example (expand) -->
<g id="node2" class="node">
<title>[root] aws_launch_configuration.example (expand)</title>
<polygon fill="none" stroke="#000000" points="348.7036,-324 132.8372,-324 132.8372,-288 348.7036,-288 348.7036,-324"/>
<text text-anchor="middle" x="240.7704" y="-301.8" font-family="Times,serif" font-size="14.00" fill="#000000">aws_launch_configuration.example</text>
</g>
<!-- [root] aws_autoscaling_group.example (expand)&#45;&gt;[root] aws_launch_configuration.example (expand) -->
<g id="edge1" class="edge">
<title>[root] aws_autoscaling_group.example (expand)-&gt;[root] aws_launch_configuration.example (expand)</title>
<path fill="none" stroke="#000000" d="M361.1433,-359.8314C339.6105,-350.2018 312.9855,-338.295 290.2552,-328.1299"/>
<polygon fill="#000000" stroke="#000000" points="291.663,-324.9254 281.1054,-324.038 288.8052,-331.3155 291.663,-324.9254"/>
</g>
<!-- [root] aws_lb_target_group.asg (expand) -->
<g id="node6" class="node">
<title>[root] aws_lb_target_group.asg (expand)</title>
<polygon fill="none" stroke="#000000" points="480.118,-252 323.4228,-252 323.4228,-216 480.118,-216 480.118,-252"/>
<text text-anchor="middle" x="401.7704" y="-229.8" font-family="Times,serif" font-size="14.00" fill="#000000">aws_lb_target_group.asg</text>
</g>
<!-- [root] aws_autoscaling_group.example (expand)&#45;&gt;[root] aws_lb_target_group.asg (expand) -->
<g id="edge2" class="edge">
<title>[root] aws_autoscaling_group.example (expand)-&gt;[root] aws_lb_target_group.asg (expand)</title>
<path fill="none" stroke="#000000" d="M401.7704,-359.7623C401.7704,-335.201 401.7704,-291.2474 401.7704,-262.3541"/>
<polygon fill="#000000" stroke="#000000" points="405.2705,-262.0896 401.7704,-252.0896 398.2705,-262.0897 405.2705,-262.0896"/>
</g>
<!-- [root] data.aws_subnet_ids.default (expand) -->
<g id="node9" class="node">
<title>[root] data.aws_subnet_ids.default (expand)</title>
<polygon fill="none" stroke="#000000" points="599.6121,-180 425.9287,-180 425.9287,-144 599.6121,-144 599.6121,-180"/>
<text text-anchor="middle" x="512.7704" y="-157.8" font-family="Times,serif" font-size="14.00" fill="#000000">data.aws_subnet_ids.default</text>
</g>
<!-- [root] aws_autoscaling_group.example (expand)&#45;&gt;[root] data.aws_subnet_ids.default (expand) -->
<g id="edge3" class="edge">
<title>[root] aws_autoscaling_group.example (expand)-&gt;[root] data.aws_subnet_ids.default (expand)</title>
<path fill="none" stroke="#000000" d="M417.5348,-359.6136C436.9219,-336.1216 469.608,-293.5134 488.7704,-252 497.8917,-232.2397 504.0557,-208.3815 507.8508,-190.1956"/>
<polygon fill="#000000" stroke="#000000" points="511.3176,-190.7053 509.8161,-180.2174 504.4495,-189.3525 511.3176,-190.7053"/>
</g>
<!-- [root] aws_security_group.instance (expand) -->
<g id="node8" class="node">
<title>[root] aws_security_group.instance (expand)</title>
<polygon fill="none" stroke="#000000" points="305.882,-252 127.6588,-252 127.6588,-216 305.882,-216 305.882,-252"/>
<text text-anchor="middle" x="216.7704" y="-229.8" font-family="Times,serif" font-size="14.00" fill="#000000">aws_security_group.instance</text>
</g>
<!-- [root] aws_launch_configuration.example (expand)&#45;&gt;[root] aws_security_group.instance (expand) -->
<g id="edge4" class="edge">
<title>[root] aws_launch_configuration.example (expand)-&gt;[root] aws_security_group.instance (expand)</title>
<path fill="none" stroke="#000000" d="M234.7142,-287.8314C232.1192,-280.0463 229.028,-270.7729 226.1486,-262.1347"/>
<polygon fill="#000000" stroke="#000000" points="229.3909,-260.7933 222.9082,-252.4133 222.7501,-263.0069 229.3909,-260.7933"/>
</g>
<!-- [root] aws_lb.example (expand) -->
<g id="node3" class="node">
<title>[root] aws_lb.example (expand)</title>
<polygon fill="none" stroke="#000000" points="720.8526,-252 614.6882,-252 614.6882,-216 720.8526,-216 720.8526,-252"/>
<text text-anchor="middle" x="667.7704" y="-229.8" font-family="Times,serif" font-size="14.00" fill="#000000">aws_lb.example</text>
</g>
<!-- [root] aws_security_group.alb (expand) -->
<g id="node7" class="node">
<title>[root] aws_security_group.alb (expand)</title>
<polygon fill="none" stroke="#000000" points="767.618,-180 617.9228,-180 617.9228,-144 767.618,-144 767.618,-180"/>
<text text-anchor="middle" x="692.7704" y="-157.8" font-family="Times,serif" font-size="14.00" fill="#000000">aws_security_group.alb</text>
</g>
<!-- [root] aws_lb.example (expand)&#45;&gt;[root] aws_security_group.alb (expand) -->
<g id="edge5" class="edge">
<title>[root] aws_lb.example (expand)-&gt;[root] aws_security_group.alb (expand)</title>
<path fill="none" stroke="#000000" d="M674.079,-215.8314C676.7821,-208.0463 680.002,-198.7729 683.0014,-190.1347"/>
<polygon fill="#000000" stroke="#000000" points="686.4031,-191.0081 686.3769,-180.4133 679.7904,-188.7119 686.4031,-191.0081"/>
</g>
<!-- [root] aws_lb.example (expand)&#45;&gt;[root] data.aws_subnet_ids.default (expand) -->
<g id="edge6" class="edge">
<title>[root] aws_lb.example (expand)-&gt;[root] data.aws_subnet_ids.default (expand)</title>
<path fill="none" stroke="#000000" d="M628.6574,-215.8314C608.0192,-206.2446 582.522,-194.4008 560.7031,-184.2655"/>
<polygon fill="#000000" stroke="#000000" points="562.146,-181.0766 551.6022,-180.038 559.197,-187.4251 562.146,-181.0766"/>
</g>
<!-- [root] aws_lb_listener.http (expand) -->
<g id="node4" class="node">
<title>[root] aws_lb_listener.http (expand)</title>
<polygon fill="none" stroke="#000000" points="703.4143,-324 574.1265,-324 574.1265,-288 703.4143,-288 703.4143,-324"/>
<text text-anchor="middle" x="638.7704" y="-301.8" font-family="Times,serif" font-size="14.00" fill="#000000">aws_lb_listener.http</text>
</g>
<!-- [root] aws_lb_listener.http (expand)&#45;&gt;[root] aws_lb.example (expand) -->
<g id="edge7" class="edge">
<title>[root] aws_lb_listener.http (expand)-&gt;[root] aws_lb.example (expand)</title>
<path fill="none" stroke="#000000" d="M646.0883,-287.8314C649.258,-279.9617 653.0404,-270.5712 656.5517,-261.8533"/>
<polygon fill="#000000" stroke="#000000" points="659.8643,-262.9968 660.3539,-252.4133 653.3712,-260.3815 659.8643,-262.9968"/>
</g>
<!-- [root] aws_lb_listener_rule.asg (expand) -->
<g id="node5" class="node">
<title>[root] aws_lb_listener_rule.asg (expand)</title>
<polygon fill="none" stroke="#000000" points="695.0581,-396 540.4827,-396 540.4827,-360 695.0581,-360 695.0581,-396"/>
<text text-anchor="middle" x="617.7704" y="-373.8" font-family="Times,serif" font-size="14.00" fill="#000000">aws_lb_listener_rule.asg</text>
</g>
<!-- [root] aws_lb_listener_rule.asg (expand)&#45;&gt;[root] aws_lb_listener.http (expand) -->
<g id="edge8" class="edge">
<title>[root] aws_lb_listener_rule.asg (expand)-&gt;[root] aws_lb_listener.http (expand)</title>
<path fill="none" stroke="#000000" d="M623.0696,-359.8314C625.3402,-352.0463 628.045,-342.7729 630.5644,-334.1347"/>
<polygon fill="#000000" stroke="#000000" points="633.9598,-334.9933 633.3999,-324.4133 627.2398,-333.0332 633.9598,-334.9933"/>
</g>
<!-- [root] aws_lb_listener_rule.asg (expand)&#45;&gt;[root] aws_lb_target_group.asg (expand) -->
<g id="edge9" class="edge">
<title>[root] aws_lb_listener_rule.asg (expand)-&gt;[root] aws_lb_target_group.asg (expand)</title>
<path fill="none" stroke="#000000" d="M590.4139,-359.7623C551.5432,-333.8485 480.2922,-286.3479 437.3559,-257.7237"/>
<polygon fill="#000000" stroke="#000000" points="439.1668,-254.7245 428.9048,-252.0896 435.2839,-260.5488 439.1668,-254.7245"/>
</g>
<!-- [root] data.aws_vpc.default (expand) -->
<g id="node10" class="node">
<title>[root] data.aws_vpc.default (expand)</title>
<polygon fill="none" stroke="#000000" points="484.9417,-108 350.5991,-108 350.5991,-72 484.9417,-72 484.9417,-108"/>
<text text-anchor="middle" x="417.7704" y="-85.8" font-family="Times,serif" font-size="14.00" fill="#000000">data.aws_vpc.default</text>
</g>
<!-- [root] aws_lb_target_group.asg (expand)&#45;&gt;[root] data.aws_vpc.default (expand) -->
<g id="edge10" class="edge">
<title>[root] aws_lb_target_group.asg (expand)-&gt;[root] data.aws_vpc.default (expand)</title>
<path fill="none" stroke="#000000" d="M403.7968,-215.7623C406.5258,-191.201 411.4096,-147.2474 414.6199,-118.3541"/>
<polygon fill="#000000" stroke="#000000" points="418.1346,-118.415 415.7604,-108.0896 411.1774,-117.6419 418.1346,-118.415"/>
</g>
<!-- [root] var.server_port -->
<g id="node16" class="node">
<title>[root] var.server_port</title>
<polygon fill="none" stroke="#000000" points="363.3919,-180 268.1489,-180 268.1489,-144 369.3919,-144 369.3919,-174 363.3919,-180"/>
<polyline fill="none" stroke="#000000" points="363.3919,-180 363.3919,-174 "/>
<polyline fill="none" stroke="#000000" points="369.3919,-174 363.3919,-174 "/>
<text text-anchor="middle" x="318.7704" y="-157.8" font-family="Times,serif" font-size="14.00" fill="#000000">var.server_port</text>
</g>
<!-- [root] aws_lb_target_group.asg (expand)&#45;&gt;[root] var.server_port -->
<g id="edge11" class="edge">
<title>[root] aws_lb_target_group.asg (expand)-&gt;[root] var.server_port</title>
<path fill="none" stroke="#000000" d="M380.826,-215.8314C370.7013,-207.0485 358.3927,-196.3712 347.4156,-186.8489"/>
<polygon fill="#000000" stroke="#000000" points="349.5555,-184.0718 339.7081,-180.1628 344.9685,-189.3595 349.5555,-184.0718"/>
</g>
<!-- [root] provider[&quot;registry.terraform.io/hashicorp/aws&quot;] -->
<g id="node12" class="node">
<title>[root] provider["registry.terraform.io/hashicorp/aws"]</title>
<polygon fill="none" stroke="#000000" points="417.7704,-36 142.7799,-18 417.7704,0 692.7609,-18 417.7704,-36"/>
<text text-anchor="middle" x="417.7704" y="-13.8" font-family="Times,serif" font-size="14.00" fill="#000000">provider["registry.terraform.io/hashicorp/aws"]</text>
</g>
<!-- [root] aws_security_group.alb (expand)&#45;&gt;[root] provider[&quot;registry.terraform.io/hashicorp/aws&quot;] -->
<g id="edge12" class="edge">
<title>[root] aws_security_group.alb (expand)-&gt;[root] provider["registry.terraform.io/hashicorp/aws"]</title>
<path fill="none" stroke="#000000" d="M658.2199,-143.9081C607.0821,-117.1305 511.4917,-67.0759 457.5178,-38.8132"/>
<polygon fill="#000000" stroke="#000000" points="459.0675,-35.6739 448.5849,-34.1356 455.8202,-41.8752 459.0675,-35.6739"/>
</g>
<!-- [root] var.alb_security_group_name -->
<g id="node14" class="node">
<title>[root] var.alb_security_group_name</title>
<polygon fill="none" stroke="#000000" points="778.0469,-108 601.4939,-108 601.4939,-72 784.0469,-72 784.0469,-102 778.0469,-108"/>
<polyline fill="none" stroke="#000000" points="778.0469,-108 778.0469,-102 "/>
<polyline fill="none" stroke="#000000" points="784.0469,-102 778.0469,-102 "/>
<text text-anchor="middle" x="692.7704" y="-85.8" font-family="Times,serif" font-size="14.00" fill="#000000">var.alb_security_group_name</text>
</g>
<!-- [root] aws_security_group.alb (expand)&#45;&gt;[root] var.alb_security_group_name -->
<g id="edge13" class="edge">
<title>[root] aws_security_group.alb (expand)-&gt;[root] var.alb_security_group_name</title>
<path fill="none" stroke="#000000" d="M692.7704,-143.8314C692.7704,-136.131 692.7704,-126.9743 692.7704,-118.4166"/>
<polygon fill="#000000" stroke="#000000" points="696.2705,-118.4132 692.7704,-108.4133 689.2705,-118.4133 696.2705,-118.4132"/>
</g>
<!-- [root] aws_security_group.instance (expand)&#45;&gt;[root] provider[&quot;registry.terraform.io/hashicorp/aws&quot;] -->
<g id="edge14" class="edge">
<title>[root] aws_security_group.instance (expand)-&gt;[root] provider["registry.terraform.io/hashicorp/aws"]</title>
<path fill="none" stroke="#000000" d="M222.6692,-215.8794C229.443,-196.7873 241.8411,-166.4348 258.7704,-144 292.4096,-99.421 345.376,-61.7268 380.8223,-39.4909"/>
<polygon fill="#000000" stroke="#000000" points="382.7625,-42.4064 389.4342,-34.1759 379.0862,-36.4495 382.7625,-42.4064"/>
</g>
<!-- [root] var.instance_security_group_name -->
<g id="node15" class="node">
<title>[root] var.instance_security_group_name</title>
<polygon fill="none" stroke="#000000" points="205.3117,-180 .2291,-180 .2291,-144 211.3117,-144 211.3117,-174 205.3117,-180"/>
<polyline fill="none" stroke="#000000" points="205.3117,-180 205.3117,-174 "/>
<polyline fill="none" stroke="#000000" points="211.3117,-174 205.3117,-174 "/>
<text text-anchor="middle" x="105.7704" y="-157.8" font-family="Times,serif" font-size="14.00" fill="#000000">var.instance_security_group_name</text>
</g>
<!-- [root] aws_security_group.instance (expand)&#45;&gt;[root] var.instance_security_group_name -->
<g id="edge15" class="edge">
<title>[root] aws_security_group.instance (expand)-&gt;[root] var.instance_security_group_name</title>
<path fill="none" stroke="#000000" d="M188.7604,-215.8314C174.6943,-206.7074 157.4764,-195.539 142.3771,-185.7449"/>
<polygon fill="#000000" stroke="#000000" points="144.0657,-182.6684 133.7714,-180.1628 140.2564,-188.5412 144.0657,-182.6684"/>
</g>
<!-- [root] aws_security_group.instance (expand)&#45;&gt;[root] var.server_port -->
<g id="edge16" class="edge">
<title>[root] aws_security_group.instance (expand)-&gt;[root] var.server_port</title>
<path fill="none" stroke="#000000" d="M242.5093,-215.8314C255.3141,-206.7927 270.9613,-195.7476 284.7423,-186.0198"/>
<polygon fill="#000000" stroke="#000000" points="286.8884,-188.7891 293.0397,-180.1628 282.8516,-183.0703 286.8884,-188.7891"/>
</g>
<!-- [root] data.aws_subnet_ids.default (expand)&#45;&gt;[root] data.aws_vpc.default (expand) -->
<g id="edge17" class="edge">
<title>[root] data.aws_subnet_ids.default (expand)-&gt;[root] data.aws_vpc.default (expand)</title>
<path fill="none" stroke="#000000" d="M488.7979,-143.8314C476.9843,-134.8779 462.5732,-123.9558 449.8269,-114.2955"/>
<polygon fill="#000000" stroke="#000000" points="451.819,-111.4137 441.7352,-108.1628 447.5909,-116.9925 451.819,-111.4137"/>
</g>
<!-- [root] data.aws_vpc.default (expand)&#45;&gt;[root] provider[&quot;registry.terraform.io/hashicorp/aws&quot;] -->
<g id="edge18" class="edge">
<title>[root] data.aws_vpc.default (expand)-&gt;[root] provider["registry.terraform.io/hashicorp/aws"]</title>
<path fill="none" stroke="#000000" d="M417.7704,-71.8314C417.7704,-64.131 417.7704,-54.9743 417.7704,-46.4166"/>
<polygon fill="#000000" stroke="#000000" points="421.2705,-46.4132 417.7704,-36.4133 414.2705,-46.4133 421.2705,-46.4132"/>
</g>
<!-- [root] output.alb_dns_name -->
<g id="node11" class="node">
<title>[root] output.alb_dns_name</title>
<polygon fill="none" stroke="#000000" points="851.9213,-324 721.6195,-324 721.6195,-288 857.9213,-288 857.9213,-318 851.9213,-324"/>
<polyline fill="none" stroke="#000000" points="851.9213,-324 851.9213,-318 "/>
<polyline fill="none" stroke="#000000" points="857.9213,-318 851.9213,-318 "/>
<text text-anchor="middle" x="789.7704" y="-301.8" font-family="Times,serif" font-size="14.00" fill="#000000">output.alb_dns_name</text>
</g>
<!-- [root] output.alb_dns_name&#45;&gt;[root] aws_lb.example (expand) -->
<g id="edge23" class="edge">
<title>[root] output.alb_dns_name-&gt;[root] aws_lb.example (expand)</title>
<path fill="none" stroke="#000000" d="M758.9846,-287.8314C743.3801,-278.6221 724.2464,-267.3301 707.5401,-257.4706"/>
<polygon fill="#000000" stroke="#000000" points="708.9373,-254.2312 698.5463,-252.1628 705.3795,-260.2596 708.9373,-254.2312"/>
</g>
<!-- [root] var.alb_name -->
<g id="node13" class="node">
<title>[root] var.alb_name</title>
<polygon fill="none" stroke="#000000" points="903.5708,-396 817.97,-396 817.97,-360 909.5708,-360 909.5708,-390 903.5708,-396"/>
<polyline fill="none" stroke="#000000" points="903.5708,-396 903.5708,-390 "/>
<polyline fill="none" stroke="#000000" points="909.5708,-390 903.5708,-390 "/>
<text text-anchor="middle" x="863.7704" y="-373.8" font-family="Times,serif" font-size="14.00" fill="#000000">var.alb_name</text>
</g>
<!-- [root] meta.count&#45;boundary (EachMode fixup) -->
<g id="node17" class="node">
<title>[root] meta.count-boundary (EachMode fixup)</title>
<ellipse fill="none" stroke="#000000" cx="824.7704" cy="-450" rx="191.4666" ry="18"/>
<text text-anchor="middle" x="824.7704" y="-445.8" font-family="Times,serif" font-size="14.00" fill="#000000">[root] meta.count-boundary (EachMode fixup)</text>
</g>
<!-- [root] meta.count&#45;boundary (EachMode fixup)&#45;&gt;[root] aws_autoscaling_group.example (expand) -->
<g id="edge19" class="edge">
<title>[root] meta.count-boundary (EachMode fixup)-&gt;[root] aws_autoscaling_group.example (expand)</title>
<path fill="none" stroke="#000000" d="M732.2027,-434.2438C667.1975,-423.1791 579.9834,-408.3341 511.4786,-396.6737"/>
<polygon fill="#000000" stroke="#000000" points="511.9575,-393.205 501.512,-394.9773 510.7829,-400.1057 511.9575,-393.205"/>
</g>
<!-- [root] meta.count&#45;boundary (EachMode fixup)&#45;&gt;[root] aws_lb_listener_rule.asg (expand) -->
<g id="edge20" class="edge">
<title>[root] meta.count-boundary (EachMode fixup)-&gt;[root] aws_lb_listener_rule.asg (expand)</title>
<path fill="none" stroke="#000000" d="M774.6615,-432.5708C745.942,-422.5814 709.6698,-409.965 679.2379,-399.38"/>
<polygon fill="#000000" stroke="#000000" points="680.1744,-396.0001 669.5796,-396.0206 677.8747,-402.6116 680.1744,-396.0001"/>
</g>
<!-- [root] meta.count&#45;boundary (EachMode fixup)&#45;&gt;[root] output.alb_dns_name -->
<g id="edge21" class="edge">
<title>[root] meta.count-boundary (EachMode fixup)-&gt;[root] output.alb_dns_name</title>
<path fill="none" stroke="#000000" d="M818.923,-431.6066C815.7185,-421.211 811.7952,-407.943 808.7704,-396 803.5508,-375.3915 798.6218,-351.8788 795.0927,-334.0553"/>
<polygon fill="#000000" stroke="#000000" points="798.4863,-333.1716 793.1356,-324.0272 791.6159,-334.5124 798.4863,-333.1716"/>
</g>
<!-- [root] meta.count&#45;boundary (EachMode fixup)&#45;&gt;[root] var.alb_name -->
<g id="edge22" class="edge">
<title>[root] meta.count-boundary (EachMode fixup)-&gt;[root] var.alb_name</title>
<path fill="none" stroke="#000000" d="M834.6117,-431.8314C838.9661,-423.7925 844.1802,-414.1666 848.9873,-405.2918"/>
<polygon fill="#000000" stroke="#000000" points="852.1112,-406.8732 853.7965,-396.4133 845.9561,-403.5392 852.1112,-406.8732"/>
</g>
<!-- [root] provider[&quot;registry.terraform.io/hashicorp/aws&quot;] (close) -->
<g id="node18" class="node">
<title>[root] provider["registry.terraform.io/hashicorp/aws"] (close)</title>
<ellipse fill="none" stroke="#000000" cx="367.7704" cy="-450" rx="247.2168" ry="18"/>
<text text-anchor="middle" x="367.7704" y="-445.8" font-family="Times,serif" font-size="14.00" fill="#000000">[root] provider["registry.terraform.io/hashicorp/aws"] (close)</text>
</g>
<!-- [root] provider[&quot;registry.terraform.io/hashicorp/aws&quot;] (close)&#45;&gt;[root] aws_autoscaling_group.example (expand) -->
<g id="edge24" class="edge">
<title>[root] provider["registry.terraform.io/hashicorp/aws"] (close)-&gt;[root] aws_autoscaling_group.example (expand)</title>
<path fill="none" stroke="#000000" d="M376.35,-431.8314C380.1062,-423.8771 384.5961,-414.369 388.7502,-405.5723"/>
<polygon fill="#000000" stroke="#000000" points="391.97,-406.9503 393.0752,-396.4133 385.6403,-403.9612 391.97,-406.9503"/>
</g>
<!-- [root] provider[&quot;registry.terraform.io/hashicorp/aws&quot;] (close)&#45;&gt;[root] aws_lb_listener_rule.asg (expand) -->
<g id="edge25" class="edge">
<title>[root] provider["registry.terraform.io/hashicorp/aws"] (close)-&gt;[root] aws_lb_listener_rule.asg (expand)</title>
<path fill="none" stroke="#000000" d="M428.6076,-432.4789C463.7668,-422.353 508.2178,-409.5511 545.1944,-398.9019"/>
<polygon fill="#000000" stroke="#000000" points="546.2754,-402.2329 554.9162,-396.102 544.3381,-395.5063 546.2754,-402.2329"/>
</g>
<!-- [root] root -->
<g id="node19" class="node">
<title>[root] root</title>
<ellipse fill="none" stroke="#000000" cx="595.7704" cy="-522" rx="50.9823" ry="18"/>
<text text-anchor="middle" x="595.7704" y="-517.8" font-family="Times,serif" font-size="14.00" fill="#000000">[root] root</text>
</g>
<!-- [root] root&#45;&gt;[root] meta.count&#45;boundary (EachMode fixup) -->
<g id="edge26" class="edge">
<title>[root] root-&gt;[root] meta.count-boundary (EachMode fixup)</title>
<path fill="none" stroke="#000000" d="M634.0999,-509.9488C668.4017,-499.164 719.3952,-483.1311 760.0181,-470.3588"/>
<polygon fill="#000000" stroke="#000000" points="761.0844,-473.6925 769.5742,-467.3543 758.9848,-467.0148 761.0844,-473.6925"/>
</g>
<!-- [root] root&#45;&gt;[root] provider[&quot;registry.terraform.io/hashicorp/aws&quot;] (close) -->
<g id="edge27" class="edge">
<title>[root] root-&gt;[root] provider["registry.terraform.io/hashicorp/aws"] (close)</title>
<path fill="none" stroke="#000000" d="M557.6083,-509.9488C523.7626,-499.2607 473.5947,-483.4182 433.3306,-470.7032"/>
<polygon fill="#000000" stroke="#000000" points="434.1775,-467.3003 423.5877,-467.6265 432.0695,-473.9754 434.1775,-467.3003"/>
</g>
</g>
</svg>